<svg width="57" height="73" viewBox="0 0 57 73" fill="none" xmlns="http://www.w3.org/2000/svg">
<path d="M0 28.4437C0 23.5098 1.25224 18.9031 3.75672 14.6237C6.2612 10.3442 9.66494 6.93748 13.9679 4.4034C18.2709 1.86931 22.9101 0.602264 27.8855 0.602264C32.8944 0.602264 37.5672 1.86931 41.9038 4.4034C46.2405 6.93748 49.6778 10.3442 52.2159 14.6237C54.754 18.9031 56.0231 23.5098 56.0231 28.4437C56.0231 31.6658 55.0818 35.5005 53.1992 39.9478C51.3167 44.395 49.0643 48.515 46.4422 52.3077C44.0553 55.3621 41.2567 58.7269 38.0463 62.4021C34.8358 66.0774 32.5078 68.6199 31.0623 70.0296C30.2555 70.7009 29.1965 71.691 27.8855 73L20.9771 66.0522C17.649 62.8301 14.4386 59.1045 11.3458 54.8754C8.25302 50.6463 5.58886 46.09 3.35332 41.2064C1.11777 36.3228 0 32.0686 0 28.4437Z" fill="#3D86C5"/>
</svg>
